# xmcd
#
# Track frame offsets: 
#        150
#        32817
#        57507
#        80002
#        101840
#        130640
#        163930
#        193500
#        222160
#        249647
#        291950
#        314207
#
# Disc length: 4481 seconds
#
# Revision: 2
# Processed by: cddbd v1.5.2PL0 Copyright (c) Steve Scherf et al.
# Submitted via: ExactAudioCopy v0.99pb4
#
DISCID=bb117f0c
DTITLE=Various Artist - Blue Notes
DYEAR=1999
DGENRE=Jazz
TTITLE0=Donald Byrd - Blackbyrd
TTITLE1=Herbie Hancock - Canteloupe Island
TTITLE2=Horace Silver - The Cape Verdean Blues
TTITLE3=Tina Brooks - True Blue
TTITLE4=Lou Donaldson - The Shadow Of Your Smile
TTITLE5=Jackie McLean - Greasy
TTITLE6=Ike Quebec - Ol' Man River
TTITLE7=Reuben Wilson - Hot Rod
TTITLE8=T.S. Monk - Monk's Dream
TTITLE9=Sonny Rollins - Misterioso
TTITLE10=Jimmy Smith - Mack The Knife
TTITLE11=Greg Osby - Black Moon
EXTD=
EXTT0=
EXTT1=
EXTT2=
EXTT3=
EXTT4=
EXTT5=
EXTT6=
EXTT7=
EXTT8=
EXTT9=
EXTT10=
EXTT11=
PLAYORDER=
